<?xml version="1.0" standalone="no"?>
<!DOCTYPE svg PUBLIC "-//W3C//DTD SVG 20010904//EN"
 "http://www.w3.org/TR/2001/REC-SVG-20010904/DTD/svg10.dtd">
<svg version="1.0" xmlns="http://www.w3.org/2000/svg"
 width="512.000000pt" height="512.000000pt" viewBox="0 0 512.000000 512.000000"
 preserveAspectRatio="xMidYMid meet">

<g transform="translate(0.000000,512.000000) scale(0.100000,-0.100000)"
fill="#000000" stroke="none">
<path d="M4061 4995 c-224 -129 -460 -195 -703 -195 l-78 0 0 -200 0 -200 -79
0 -78 0 -6 98 c-9 159 -59 273 -169 382 -44 43 -87 74 -144 101 -378 183 -804
-91 -804 -518 l0 -63 -589 -2 c-578 -3 -590 -3 -617 -24 -15 -11 -37 -33 -48
-48 -20 -26 -21 -42 -24 -375 l-3 -347 -92 -17 c-135 -26 -223 -73 -322 -172
-132 -131 -208 -305 -222 -502 -13 -189 47 -389 160 -538 17 -22 131 -141 254
-265 l223 -225 2 -852 c3 -842 3 -852 24 -879 11 -15 33 -37 48 -48 l27 -21
1739 0 1739 0 27 21 c15 11 37 33 48 48 21 27 21 31 24 1464 l3 1437 59 34
c231 133 429 377 514 636 58 175 59 188 63 648 l5 427 -79 0 c-241 0 -464 61
-695 190 -59 33 -108 60 -110 60 -2 -1 -45 -25 -97 -55z m-1337 -153 c90 -42
149 -100 192 -188 31 -63 37 -85 42 -163 l5 -91 -82 0 -81 0 0 56 c0 31 -5 75
-12 98 -16 55 -99 138 -154 154 -94 28 -169 8 -239 -63 -57 -56 -75 -102 -75
-189 l0 -56 -81 0 -82 0 5 89 c9 152 83 273 207 339 78 42 122 52 213 48 61
-3 92 -11 142 -34z m1547 -35 c166 -84 337 -134 562 -162 l49 -6 -4 -342 c-4
-333 -5 -345 -31 -442 -29 -109 -85 -233 -144 -323 -59 -88 -189 -218 -281
-279 -92 -61 -223 -123 -262 -123 -39 0 -170 62 -262 123 -92 61 -222 191
-281 279 -59 90 -115 214 -144 323 -26 97 -27 109 -31 442 l-4 342 34 4 c265
37 409 78 572 163 56 28 106 52 112 53 6 1 58 -23 115 -52z m-1656 -272 c21
-20 25 -34 25 -80 l0 -55 -80 0 -80 0 0 55 c0 67 29 105 80 105 19 0 40 -9 55
-25z m665 -375 l0 -80 -1120 0 -1120 0 0 -280 0 -280 -37 19 c-21 10 -57 24
-80 31 l-43 13 0 329 0 328 1200 0 1200 0 0 -80z m29 -302 c59 -290 252 -574
500 -737 51 -33 97 -61 102 -61 5 0 9 -221 9 -516 l0 -516 -82 -93 -83 -93
-477 -1 -478 -1 0 -480 0 -480 480 0 480 0 0 368 1 367 79 85 79 85 1 -612 0
-613 -1360 0 -1360 0 0 422 0 422 40 -39 41 -40 513 515 c355 357 524 534 552
577 l39 63 376 0 377 0 12 -30 c28 -68 129 -130 210 -130 124 0 240 116 240
240 0 124 -116 240 -240 240 -81 0 -182 -62 -210 -130 l-12 -30 -345 0 -345 0
6 23 c33 119 31 290 -4 417 -56 197 -197 380 -352 454 -252 121 -509 75 -727
-130 l-92 -87 -40 39 -39 38 0 263 0 263 1048 0 1048 0 13 -62z m-2477 -429
c107 -23 155 -55 305 -203 l143 -140 143 140 c150 148 198 180 305 203 248 53
478 -102 564 -379 29 -96 32 -264 5 -352 l-18 -58 -364 0 -365 0 -88 -175 -87
-175 -124 372 -124 372 -110 -277 -111 -277 -93 0 -93 0 0 -80 0 -80 148 0
147 0 34 88 c19 48 41 103 49 122 l15 35 113 -339 c62 -186 115 -341 118 -343
3 -3 73 130 155 296 l151 301 270 0 c255 0 270 -1 261 -17 -5 -10 -210 -218
-456 -463 l-445 -445 -464 465 c-461 462 -464 466 -505 551 -55 114 -74 208
-68 324 21 356 288 598 589 534z m3328 -464 c19 0 45 4 58 8 l22 8 0 -1370 0
-1371 -1680 0 -1680 0 0 742 0 743 80 -80 80 -80 0 -582 0 -583 1520 0 1520 0
0 1291 0 1290 23 -8 c12 -4 38 -8 57 -8z m-745 -350 c50 -49 15 -135 -55 -135
-41 0 -80 39 -80 80 0 19 9 40 25 55 15 16 36 25 55 25 19 0 40 -9 55 -25z
m185 -941 c0 -3 -55 -66 -121 -141 l-122 -135 -86 86 c-48 47 -91 86 -96 86
-13 0 -105 -92 -105 -105 0 -6 66 -75 146 -155 l145 -145 77 85 c42 46 96 105
119 130 l43 45 0 -192 0 -193 -320 0 -320 0 0 320 0 320 320 0 c176 0 320 -3
320 -6z"/>
<path d="M4015 4546 c-72 -33 -95 -83 -95 -211 l0 -93 -109 -4 c-118 -3 -141
-12 -185 -72 -19 -25 -21 -42 -21 -166 0 -124 2 -141 21 -166 44 -60 67 -69
184 -72 l108 -4 4 -108 c3 -117 12 -140 72 -184 25 -19 42 -21 166 -21 124 0
141 2 166 21 60 44 69 67 72 184 l4 108 108 4 c117 3 140 12 184 72 19 25 21
42 21 166 0 124 -2 141 -21 166 -44 60 -67 69 -184 72 l-108 4 -4 108 c-3 117
-12 140 -72 184 -24 18 -44 21 -154 24 -91 1 -135 -2 -157 -12z m225 -306 l0
-160 160 0 160 0 0 -80 0 -80 -160 0 -160 0 0 -160 0 -160 -80 0 -80 0 0 160
0 160 -160 0 -160 0 0 80 0 80 160 0 160 0 0 160 0 160 80 0 80 0 0 -160z"/>
<path d="M2640 3680 l0 -80 240 0 240 0 0 80 0 80 -240 0 -240 0 0 -80z"/>
<path d="M2640 3360 l0 -80 240 0 240 0 0 80 0 80 -240 0 -240 0 0 -80z"/>
<path d="M2640 3040 l0 -80 240 0 240 0 0 80 0 80 -240 0 -240 0 0 -80z"/>
<path d="M1840 960 l0 -80 80 0 80 0 0 80 0 80 -80 0 -80 0 0 -80z"/>
<path d="M2160 960 l0 -80 80 0 80 0 0 80 0 80 -80 0 -80 0 0 -80z"/>
<path d="M2480 960 l0 -80 80 0 80 0 0 80 0 80 -80 0 -80 0 0 -80z"/>
</g>
</svg>
