<?xml version="1.0" standalone="no"?>
<!DOCTYPE svg PUBLIC "-//W3C//DTD SVG 20010904//EN"
 "http://www.w3.org/TR/2001/REC-SVG-20010904/DTD/svg10.dtd">
<svg version="1.0" xmlns="http://www.w3.org/2000/svg"
 width="512.000000pt" height="512.000000pt" viewBox="0 0 512.000000 512.000000"
 preserveAspectRatio="xMidYMid meet">

<g transform="translate(0.000000,512.000000) scale(0.100000,-0.100000)"
fill="#000000" stroke="none">
<path d="M560 4827 l0 -214 320 -426 320 -427 -456 0 c-329 0 -468 -3 -498
-12 -55 -16 -138 -99 -154 -154 -17 -58 -17 -2328 0 -2386 14 -48 76 -121 118
-138 l30 -12 0 -224 c0 -222 0 -223 -25 -260 -61 -90 -69 -217 -21 -313 37
-72 68 -104 138 -142 58 -31 70 -34 148 -34 78 0 90 3 148 34 70 38 101 70
138 142 48 96 40 223 -21 313 -25 37 -25 39 -25 251 l0 215 720 0 720 0 0
-215 c0 -212 0 -214 -25 -251 -61 -90 -69 -217 -21 -313 37 -72 68 -104 138
-142 58 -31 70 -34 148 -34 78 0 90 3 148 34 70 38 101 70 138 142 48 96 40
223 -21 313 -25 37 -25 39 -25 251 l0 215 880 0 880 0 0 -215 c0 -212 0 -214
-25 -251 -65 -95 -70 -220 -13 -326 35 -66 67 -97 142 -136 43 -22 64 -26 136
-26 78 -1 90 2 148 33 70 38 101 70 138 142 48 96 40 223 -21 313 -25 37 -25
38 -25 260 l0 224 30 12 c42 17 104 90 118 138 17 57 17 2808 0 2864 -6 22
-31 62 -55 88 -76 84 -23 80 -971 80 -626 0 -845 -3 -876 -12 -55 -16 -138
-99 -154 -154 -7 -24 -12 -100 -12 -178 l0 -136 -480 0 -480 0 320 427 320
426 0 214 0 213 -1040 0 -1040 0 0 -213z m1920 -54 l0 -106 -340 -454 -340
-453 -200 0 -200 0 -340 453 -340 454 0 106 0 107 880 0 880 0 0 -107z m2375
-718 c21 -20 25 -34 25 -80 l0 -55 -880 0 -880 0 0 55 c0 46 4 60 25 80 l24
25 831 0 831 0 24 -25z m25 -1550 l0 -1256 -25 -24 -24 -25 -856 0 -855 0 0
1280 0 1280 880 0 880 0 0 -1255z m-3600 992 l0 -103 -47 -12 c-71 -19 -200
-83 -284 -139 -140 -95 -270 -247 -324 -380 l-23 -58 -181 -3 -181 -2 0 375 0
376 25 24 24 25 496 0 495 0 0 -103z m480 21 l0 -83 -160 0 -160 0 0 83 0 82
160 0 160 0 0 -82z m1200 -318 l0 -400 -181 2 -181 3 -23 58 c-54 132 -191
293 -325 382 -80 53 -215 118 -283 137 l-47 12 0 103 0 103 520 0 520 0 0
-400z m-1246 74 l46 -7 0 -233 0 -234 -160 0 -160 0 0 234 0 235 33 4 c56 7
192 7 241 1z m-437 -471 c-2 -2 -117 -2 -256 -1 l-251 3 37 65 c78 133 236
264 402 332 l66 27 3 -211 c1 -116 1 -213 -1 -215z m758 382 c61 -26 170 -100
227 -153 51 -48 122 -141 152 -199 l17 -33 -256 0 -255 0 0 215 0 214 38 -14
c20 -7 55 -21 77 -30z m-1155 -625 l0 -80 -320 0 -320 0 0 80 0 80 320 0 320
0 0 -80z m320 0 l0 -80 -80 0 -80 0 0 80 0 80 80 0 80 0 0 -80z m640 0 l0 -80
-240 0 -240 0 0 80 0 80 240 0 240 0 0 -80z m320 0 l0 -80 -80 0 -80 0 0 80 0
80 80 0 80 0 0 -80z m800 0 l0 -80 -320 0 -320 0 0 80 0 80 320 0 320 0 0 -80z
m-2080 -400 l0 -160 -80 0 -80 0 0 -400 0 -400 -215 0 c-216 0 -216 0 -240 25
l-25 24 0 536 0 535 320 0 320 0 0 -160z m320 0 l0 -160 -80 0 -80 0 0 160 0
160 80 0 80 0 0 -160z m640 0 l0 -160 -240 0 -240 0 0 160 0 160 240 0 240 0
0 -160z m320 0 l0 -160 -80 0 -80 0 0 160 0 160 80 0 80 0 0 -160z m800 -400
l0 -560 -240 0 -240 0 0 400 0 400 -80 0 -80 0 0 160 0 160 320 0 320 0 0
-560z m-640 -240 l0 -320 -720 0 -720 0 0 320 0 320 720 0 720 0 0 -320z
m-1760 -642 l0 -163 -80 0 -80 0 0 163 0 162 80 0 80 0 0 -162z m1920 0 l0
-163 -80 0 -80 0 0 163 0 162 80 0 80 0 0 -162z m2240 0 l0 -163 -80 0 -80 0
0 163 0 162 80 0 80 0 0 -162z m-4177 -332 c103 -43 128 -177 48 -257 -65 -65
-157 -65 -222 0 -124 123 13 325 174 257z m1920 0 c103 -43 128 -177 48 -257
-65 -65 -157 -65 -222 0 -124 123 13 325 174 257z m2240 0 c103 -43 128 -177
48 -257 -65 -65 -157 -65 -222 0 -124 123 13 325 174 257z"/>
<path d="M3280 3040 l0 -560 720 0 720 0 0 560 0 560 -720 0 -720 0 0 -560z
m1280 280 l0 -120 -302 0 -303 0 -49 -75 c-27 -41 -51 -75 -55 -75 -3 0 -32
52 -64 115 l-57 115 -145 0 -145 0 0 80 0 80 560 0 560 0 0 -120z m-833 -395
c54 -107 101 -195 104 -195 3 0 52 70 109 155 l103 155 258 0 259 0 0 -200 0
-200 -560 0 -560 0 0 240 0 240 95 0 95 0 97 -195z"/>
<path d="M3760 2307 c-49 -16 -133 -102 -148 -153 -28 -94 -8 -169 63 -239
101 -102 229 -102 330 0 98 97 101 222 8 325 -65 72 -158 97 -253 67z m135
-172 c50 -49 15 -135 -55 -135 -41 0 -80 39 -80 80 0 41 39 80 80 80 19 0 40
-9 55 -25z"/>
<path d="M4400 2307 c-49 -16 -133 -102 -148 -153 -28 -94 -8 -169 63 -239
101 -102 229 -102 330 0 98 97 101 222 8 325 -65 72 -158 97 -253 67z m135
-172 c50 -49 15 -135 -55 -135 -41 0 -80 39 -80 80 0 41 39 80 80 80 19 0 40
-9 55 -25z"/>
</g>
</svg>
