<svg xmlns="http://www.w3.org/2000/svg" viewBox="0 0 672.2 77.04"><defs><style>.cls-1{fill:#407b84;}</style></defs><g id="Capa_2" data-name="Capa 2"><g id="Capa_1-2" data-name="Capa 1"><path class="cls-1" d="M12.6,82.12V7.87H30.38a28.59,28.59,0,0,1,12.41,2.5,18.82,18.82,0,0,1,8.08,7.11,20.44,20.44,0,0,1,2.86,11,21.52,21.52,0,0,1-2.56,10.67,19.34,19.34,0,0,1-7.23,7.33,24.9,24.9,0,0,1-11,3.2L57.69,82.12H51.44L27.18,50H17.5V82.12Zm4.9-36.45h12a23.13,23.13,0,0,0,10.23-2.11,15.92,15.92,0,0,0,6.73-5.94,16.76,16.76,0,0,0,2.39-9q0-7.74-5.18-12.19T29.48,11.92h-12Z" transform="translate(-12.6 -6.52)"/><path class="cls-1" d="M74.25,82.12V7.87h4.9V82.12Z" transform="translate(-12.6 -6.52)"/><path class="cls-1" d="M104.31,82.12V7.87h4.9l41.85,65.75V7.87H156V82.12h-4.91L109.21,16.47V82.12Z" transform="translate(-12.6 -6.52)"/><path class="cls-1" d="M214.2,83.56a36,36,0,0,1-14.58-3,37.31,37.31,0,0,1-11.93-8.25A38.87,38.87,0,0,1,176.76,45a38.73,38.73,0,0,1,10.93-27.29,37.33,37.33,0,0,1,11.93-8.26,37.27,37.27,0,0,1,29.16,0,37.29,37.29,0,0,1,11.92,8.26,39.33,39.33,0,0,1,0,54.59,37.26,37.26,0,0,1-11.92,8.25A36,36,0,0,1,214.2,83.56Zm0-4.72a30.57,30.57,0,0,0,12.6-2.61A31.88,31.88,0,0,0,237,69a34.11,34.11,0,0,0,6.86-10.75A34.86,34.86,0,0,0,246.37,45a34.81,34.81,0,0,0-2.47-13.18A34.16,34.16,0,0,0,237,21.1a31.85,31.85,0,0,0-10.24-7.24,31.62,31.62,0,0,0-25.16,0,31.7,31.7,0,0,0-10.23,7.24,34,34,0,0,0-6.87,10.76A34.81,34.81,0,0,0,182.07,45a34.86,34.86,0,0,0,2.47,13.19A34,34,0,0,0,191.41,69a31.73,31.73,0,0,0,10.23,7.25A30.48,30.48,0,0,0,214.2,78.84Z" transform="translate(-12.6 -6.52)"/><path class="cls-1" d="M272.52,82.12V7.87H309v4.37H277.42V42.75h30.47v4.32H277.42V77.76H309v4.36Z" transform="translate(-12.6 -6.52)"/><path class="cls-1" d="M322.42,82.12,350.86,42,326.79,7.87h6L354,37.8,375.12,7.87h6L357,42l28.44,40.09H379.3L354,46.35,328.59,82.12Z" transform="translate(-12.6 -6.52)"/><path class="cls-1" d="M403.6,82.12V7.87h17.78a28.79,28.79,0,0,1,12.5,2.5,18.46,18.46,0,0,1,8,7.13,20.8,20.8,0,0,1,2.81,11,21.8,21.8,0,0,1-2.81,11.14,19.56,19.56,0,0,1-8,7.58A26.52,26.52,0,0,1,421.38,50H408.5V82.12Zm4.9-36.45h12a22.93,22.93,0,0,0,10.32-2.16,16,16,0,0,0,6.69-6,17,17,0,0,0,2.34-8.94,16.42,16.42,0,0,0-2.34-8.86A15.32,15.32,0,0,0,430.8,14a24.23,24.23,0,0,0-10.32-2h-12Z" transform="translate(-12.6 -6.52)"/><path class="cls-1" d="M464.67,82.12V7.87h36.45v4.37H469.57V42.75H500v4.32H469.57V77.76h31.55v4.36Z" transform="translate(-12.6 -6.52)"/><path class="cls-1" d="M521.63,82.12V7.87h17.78a28.6,28.6,0,0,1,12.42,2.5,18.88,18.88,0,0,1,8.08,7.11,20.52,20.52,0,0,1,2.85,11,21.52,21.52,0,0,1-2.56,10.67A19.38,19.38,0,0,1,553,46.48a24.94,24.94,0,0,1-11.05,3.2l24.79,32.44h-6.25L536.21,50h-9.67V82.12Zm4.91-36.45h12a23.17,23.17,0,0,0,10.24-2.11,16,16,0,0,0,6.72-5.94,16.76,16.76,0,0,0,2.39-9q0-7.74-5.18-12.19t-14.17-4.46h-12Z" transform="translate(-12.6 -6.52)"/><path class="cls-1" d="M596.56,82.12V12.46H572.94V7.87h52.19v4.59H601.46V82.12Z" transform="translate(-12.6 -6.52)"/><path class="cls-1" d="M661.85,83.56a25.81,25.81,0,0,1-10.23-1.86,26.73,26.73,0,0,1-7.29-4.5,28.28,28.28,0,0,1-4.62-5.09,35.83,35.83,0,0,1-2.25-3.62l3.11-3.24a37.59,37.59,0,0,0,2.16,3.46,27.35,27.35,0,0,0,4.09,4.62,23.17,23.17,0,0,0,6.3,4A21.52,21.52,0,0,0,661.94,79a21.76,21.76,0,0,0,8.87-1.78A15.33,15.33,0,0,0,677.33,72a14.68,14.68,0,0,0,2.48-8.68A14.51,14.51,0,0,0,678.12,56a15.51,15.51,0,0,0-4.57-5,33.39,33.39,0,0,0-6.48-3.55q-3.6-1.52-7.47-2.91c-1.74-.63-3.6-1.39-5.6-2.29a28.15,28.15,0,0,1-5.67-3.44,16.93,16.93,0,0,1-4.39-5.2A15.47,15.47,0,0,1,642.23,26a19.28,19.28,0,0,1,1.49-7.54,19.53,19.53,0,0,1,4.14-6.21,19.21,19.21,0,0,1,6.34-4.21,22.43,22.43,0,0,1,16.36,0A22,22,0,0,1,676.84,12a19.19,19.19,0,0,1,4,4.79l-2.88,3.06a15.55,15.55,0,0,0-3.31-4.18,17.66,17.66,0,0,0-5.31-3.33,18,18,0,0,0-7-1.31,15.25,15.25,0,0,0-8.39,2.21,14.77,14.77,0,0,0-5.24,5.65,15.25,15.25,0,0,0-1.8,7.17A11.34,11.34,0,0,0,648.31,32,13.1,13.1,0,0,0,652.07,36a24.94,24.94,0,0,0,5.06,2.77q2.75,1.13,5.4,2,4.14,1.48,8.1,3.24a35.93,35.93,0,0,1,7.18,4.21,18.17,18.17,0,0,1,5.1,6.05,18.71,18.71,0,0,1,1.89,8.78,18.92,18.92,0,0,1-11.36,18.09A27.45,27.45,0,0,1,661.85,83.56Z" transform="translate(-12.6 -6.52)"/></g></g></svg>